<svg fill="none" height="48" viewBox="0 0 48 48" width="48" xmlns="http://www.w3.org/2000/svg"><g fill="#ff2214"><path d="m9.23605 24.9314h-3.46188v-.2691c0 .1435.95067-.2152 1.0583-.287.37668-.287.35874-.8071.35874-1.2376v-4.7893-2.0627c0-.8431-.71749-1.0942-1.41704-1.0942v-.2691h3.53363s4.5202 5.7399 4.5919 5.8296c-.0538-.0538 0-.4125 0-.5022 0-.3946.018-.7893 0-1.1839 0-.7533 0-1.5067.018-2.2421 0-.8072 0-1.4888-.9507-1.6144-.0179 0-.5022-.0359-.5022-.0179v-.2691h3.5874v.2691c0-.0538-.7354.0538-.8251.0717-.6099.2153-.6458.9328-.6458 1.4709.018.9327.0359 1.8475.0359 2.7803v5.5605h-.2152l-6.4933-8.1256v6.1884c0 .8968.37668 1.5246 1.32735 1.5246zm10.63675 9.4529v-.1435-2.1166-3.4798c0-.5202.1435-1.3094-.1435-1.7758-.1435-.1973-.3767-.287-.5919-.3229-.0538-.0179-.6099-.0717-.6099-.0538v-.2511h2.4216c1.0044 0 2.0089-.0179 3.0134.0179.9507.0359 1.9014.1974 2.5471 1.0045.6996.861.8251 2.1346.1256 3.0314-.4126.5202-1.0045.9686-1.6323 1.1659.0897-.0179 1.0224 1.4529 1.1121 1.5964.3946.592.7713 1.2018 1.148 1.8117.269.4484.6457 1.0404 1.2556 1.0404v.269h-3.0135c-.7533-1.148-1.4708-2.2959-2.2242-3.4439-.287-.4485-.6099-1.0942-1.2197-1.0942 0 1.0762-.0897 2.2063.0179 3.2825.0718.574.3049.8969.8969.9686l.2152.018h.2153v.269h-4.879c0-.3228.0897-.2511.3947-.287.2511-.0179.5201-.0538.7174-.2511.287-.3049.2332-.843.2332-1.2556zm2.1884-7.6054v4.3049c.9327 0 1.8654-.0358 2.3856-.9147.4843-.8072.5381-1.9911-.1255-2.7265-.3588-.4305-.9507-.6637-1.5247-.6637z"/><path d="m42.9581 11.2453c-.0359-.1076-.0538-.2511-.1256-.3229-.2152-.1973-.287-.4484-.556-.6278-.1794-.1076-.3946-.1435-.5023-.35873-.2152-.41255-.0179-.75336-.5201-1.04036-.1615-.08968-.3767-.10762-.4843-.26906-.1077-.16143-.0538-.39462-.1615-.55605-.2152-.30493-.6278-.50224-.8789-.75336-.2152-.19731-.2152-.53812-.4126-.73543-.2511-.25112-.7713-.10762-1.0941-.12556-.0538-.39462-.6099-.52018-.9148-.59193-.3408-.07175-.4843-.39462-.7893-.57399-.3228-.17937-.6636-.10762-1.0044-.10762-.6278-.01794-1.4888-.16144-1.5785-.93274.2152-.08968.269-.25112.4305-.41255.1435-.1435.2511-.16144.3049-.37669.0538-.17937 0-.37668.0359-.55605.0717-.39462.3587-.66368.7175-.84305-.305-.64574-1.148-.28699-1.6682-.60986-.2152-.1435-.3946-.26906-.6816-.25113-.287.03588-.5022.1435-.8072.10763-.3049-.01794-.4125-.17937-.6816-.25112-.2511-.05381-.6099.03587-.8072.16143-.0179 0 0 .01794 0 .01794-.3946.35874-.6637.23318-1.0762.01794-.3408-.19731-.7175-.19731-1.0583 0-.3049.19731-.5919.35874-.9686.25112-.3767-.10763-.6996-.25112-1.0583-.03588-.1614.08969-.2511.23319-.4126.287-.3408.08968-.7892.01794-1.1479.05381-.4126.05381-.8252.12556-1.2018.26906-.861.32287-1.5247.84305-2.0269 1.61435-1.0404 1.65022-.3588 3.80269-.8072 5.59641-.305 1.25557-1.2018 2.54707-2.6009 2.60087-.9686.0359-1.7399-.6098-2.3139-1.3273-.6816-.82514-1.2915-1.70406-1.8476-2.61886-.4125-.71749-.8609-1.52466-1.0224-2.34978l-.0538-.25112-1.6143 1.63229 7.3004 7.94617h-2.6188v.2691c0-.018.5919.0359.6457.0359.2332.0538.4843.1255.6278.3408.4664.6816.3408 1.4887.3408 2.26-.0179 1.0583-.0538 4.8969-.1973 6.0628-.0897.6637-.8251.7893-1.3991.7713 0 .0359-.0179.2691-.0179.2691h8.1435l.4663-3.2646h-.269c-.0359 0-.3767.861-.4126.9327-.1973.4844-.5201.861-.9686 1.148-.8968.592-3.2107.9328-3.2107-.6816v-3.0134c.3049.0179.5919.0538.8789.1435.9327.3228 1.2377 1.2376 1.3094 2.1345h.2691v-3.4978l6.7982 7.4081h-1.6861c0 .0897 0 .1794.0179.2691.9866-.018 1.13 1.2556 1.435 1.9372.6816 1.5426 1.2197 3.139 1.8655 4.6816.4484 1.0942.8789 2.1883 1.3094 3.2825h.3228l1.9014-4.556 6.7982 7.408v-.1255c.0179-.3408-.0179-.6637-.0538-1.0045-.0359-.5561.1076-1.1121.0897-1.6682-.018-.556-.287-.9686-.4305-1.4888-.0538-.287.0179-.556.1076-.8251.1794-.5022.0717-.9507.0179-1.4708-.0717-.5202.4485-.8072.3588-1.3633-.0359-.269-.1794-.4305-.1615-.6995.018-.2511.0539-.4664-.0179-.7354-.0717-.2512-.2152-.5023-.2152-.7534-.018-.3229.1076-.5919 0-.9148-.1256-.3767-.1794-.5919-.1077-.9686.0897-.4664.2153-1.1121-.1614-1.4888-.1973-.2332-.3408-.2511-.3946-.5919-.0359-.2511-.0359-.5023-.0538-.7534-.018-.2511-.0538-.5022-.1615-.7354-.1076-.1973-.3049-.3767-.4125-.574-.1794-.4126.0538-.8789-.0718-1.3094-.0717-.2153-.2152-.3946-.287-.6099-.0717-.2152-.1076-.4484-.2152-.6637-.1794-.3408-.5023-.4125-.4484-.861.0538-.3228.1973-.5381-.0359-.843-.2153-.2691-.4843-.3587-.6099-.6816-.1255-.3408-.1614-.5561-.4843-.7534-.2332-.1794-.5022-.3767-.7892-.4125-.3408-.0359-.6637.0896-.879-.2332-.1614-.2511-.1434-.5381-.4843-.6458-.2869-.0717-.6457.0718-.8789-.1435-.1973-.1793-.287-.4305-.4663-.6278-.0897-.1076-.3409-.2511-.1077-.3946.2512-.1435.6996.3229.9686.3946.3408.0897.7893.1435 1.148.1794.7713.0538 1.3633-.556 2.1166-.5381.3588.0179.7354.1435 1.0763.0179.3228-.1435.4484-.5919.8071-.6636.3946-.0539.6816.2331 1.0045-.1615.2332-.287.2691-.6457.574-.8789.3587-.2691.7713-.2153 1.148-.3946.3049-.1615.4663-.574.6816-.8431-.1794-.2511-.3049-.5202-.4305-.7892zm-22.9596 8.2152v-.4663-1.8655c0-.2691-.0359-.6457.0358-.9507l1.9373 2.1166c-.3409.8251-1.1301 1.0942-1.9731 1.1659zm13.9551 11.8924c-.2279.5642-.4611 1.1263-.6995 1.6861.0358-.0897-.2153-.5381-.2512-.6278-.3587-.9507-.7354-1.8834-1.1121-2.8161-.1076-.287-.2331-.574-.3408-.861zm-27.9103 4.1614-.01794-.0358c.05382-.0538.08969-.1077.12557-.1615.08968-.2152-.07175-.3946-.287-.4125-.32287-.0359-.71749.1973-.86099.4663-.02157.0347-.03548.0736-.0408.1141s-.00192.0816.00998.1207c.01189.0391.03199.0752.05896.1058.02698.0307.06019.0552.09742.072.10763.0538.32287 0 .35875-.1256v-.0179-.0179l.05381-.0359.08969.1973-.44843.2153c-.17938-.1615-.35875-.3588-.30494-.6099.01794-.1794.16144-.3229.30494-.4126.07729-.0582.16167-.1065.25112-.1435.17937-.0538.39462-.0897.57399 0 .16143.0897.25112.2332.25112.4126 0 .0359 0 .1076.05381.1076l.01794.0359zm.57399.4844s0 .0179.01794.0179v.0179c.03587.0718.01794.1615-.03587.287-.07175.1076-.19731.2153-.37669.305-.19731.1076-.3408.1434-.46636.1434-.12556-.0179-.21525-.0538-.26906-.1255v-.0179c-.01794 0-.01794 0-.01794-.018v-.0179c-.03587-.0897-.01794-.1794.03588-.287.05381-.1076.17937-.2153.35874-.3229.19731-.1076.35874-.1435.4843-.1255.12557.0179.21525.0538.25113.1255h.01793zm.07175-.0359c-.07175-.1256-.19731-.2153-.35874-.2153-.18033-.0183-.36194.0192-.52018.1077-.17937.0896-.30493.2152-.39462.3587-.07175.1614-.08969.3049-.01794.4305.07175.1435.19731.2152.37668.2332.17938.0179.34081-.018.52018-.1077.16144-.1076.287-.2152.37668-.3766.08969-.1435.08969-.287.01794-.4305zm-.75336 1.4529 1.07623-.6637.10763.1614.03587.0718c.01794.0359.01794.0897.01794.1435 0 .0717-.03588.1435-.08969.2332-.03587.0717-.1435.1614-.28699.2511-.1435.0897-.26906.1435-.37669.1435-.10762 0-.17937-.0179-.23318-.0538-.05381-.0179-.07175-.0359-.08969-.0718-.03587-.0179-.05381-.0358-.05381-.0538zm1.04036-.8789-.05381.0358c.01793.018 0 .0539-.01794.0718-.01794.0359-.03588.0538-.07175.0897l-.82511.4843c-.03588.0359-.07175.0538-.10763.0538-.03587 0-.05381 0-.07174-.0359l-.07175.0359.23318.3587c0 .0359.03587.0538.05381.0897.03588.0359.07175.0718.12556.1076.07175.0359.17937.0539.287.0539.10762 0 .25112-.0359.41255-.1435.17938-.1077.30494-.2153.34081-.3408.05381-.1256.07175-.2332.05381-.3409 0-.0358-.01793-.0538-.01793-.0896-.0189-.0198-.0314-.0448-.03588-.0718zm.30493 1.2556-.03587-.0538.32287-.2512.07174.1077zm.50224.6457-.03587-.0359c.03587-.0538.07175-.0896.08968-.1255.01794-.0359.03588-.0718.03588-.0897.01794-.0538.01794-.0897.01794-.1076-.01794-.0359-.01794-.0538-.03588-.0718-.03587-.0359-.07175-.0717-.12556-.0538-.05381 0-.10762.0179-.16143.0538-.05382.0359-.08969.0718-.08969.1256-.01794.0359-.01794.0717-.01794.1255v.0359c.01794.018.01794.0359.01794.0538 0 .018 0 .0359.01794.0538v.0897c0 .0538 0 .1076-.03588.1794-.01793.0717-.07175.1256-.16143.1794l-.01794.0179c-.08969.0538-.17937.0897-.287.0897-.10762 0-.17937-.0359-.23318-.1076 0 0-.01794-.0359-.03587-.0538 0-.0359-.01794-.0718-.01794-.1077-.01794 0-.01794-.0179-.01794-.0179v-.0179-.018l-.01794-.0179v-.0179c-.01793 0-.01793-.018-.03587-.018h-.03587l-.03588-.0359.35875-.2511.03587.0359c-.07175.0897-.12556.1614-.1435.2511-.03587.0897-.01793.1794.01794.2332s.08969.0717.1435.0717c.07175 0 .12556-.0179.17937-.0538l.01794-.0179c.05381-.0359.10762-.0897.12556-.1435.01793-.0538.01793-.0897.01793-.1435 0-.0179 0-.0359-.01793-.0538v-.0538c-.01794-.018-.01794-.0359-.01794-.0538v-.0538c-.01794-.0539 0-.1077.01794-.1794.03587-.0538.08968-.1256.16143-.1794.08969-.0538.16144-.0897.25112-.0897.08969 0 .16144.0359.21525.1256.01794 0 .01794 0 .01794.0179 0 0 .01793 0 .01793.018 0 .0179 0 .0358.01794.0538v.1435h.05381l.01794.0358zm.95068.7354c-.03588-.0358-.05382-.0358-.08969-.0179-.03588 0-.07175.0179-.10762.0538l-.73543.5919c-.03587.0359-.05381.0539-.07175.0897-.01794.0359-.01794.0538 0 .0897l-.05381.0359-.19731-.2332.05381-.0359c.03588.018.05381.0359.08969.018.03587 0 .07175-.018.10762-.0538l.73543-.6099c.03587-.0179.07175-.0538.07175-.0897.00867-.0099.01345-.0227.01345-.0359s-.00478-.0259-.01345-.0358l.05381-.0539.19731.2332zm-.87893.9686c.01794.018.05381.0359.07175.018.03587-.018.07175-.0359.08969-.0538l.73542-.6458c.03588-.0179.05381-.0538.07175-.0897.01794-.0358.01794-.0538 0-.0896l.05381-.0359.12556.1614-.41255 1.1839.64574-.574c.01793 0 .01793-.0179.03587-.0179 0 0 0-.018.01794-.018.01794-.0179.01794-.0359.03587-.0538 0-.0359 0-.0538-.01793-.0717l.05381-.0539.1435.1794-.05382.0359c-.01793-.0179-.05381-.0179-.08968-.0179-.01794.0179-.05381.0358-.07175.0538l-.9148.7892-.01794-.0179.46637-1.3453-.7713.6636c0 .018 0 .018-.01794.018 0 .0179-.01793.0179-.01793.0359-.01794.0179-.01794.0358-.01794.0538-.01794.0179-.01794.0358 0 .0538l-.05381.0538-.1435-.1794zm2.26014.5561c-.018-.0179-.0539-.0359-.0718-.0179-.0398.0175-.07617.0417-.10762.0717l-.287.3049.41252.4126.305-.3049c.0358-.0359.0538-.0718.0717-.1077 0-.0179 0-.0538-.0179-.0717l.0538-.0538.1973.2152-.0359.0359c-.0179-.0179-.0538-.0179-.0717-.0179-.018.0179-.0359.0179-.0538.0358-.018 0-.018.018-.0359.018 0 .0179-.0179.0179-.0179.0359l-.66372.6816c-.03587.0358-.05381.0717-.07175.0897-.01794.0358 0 .0717.01794.0896l-.05381.0539-.21525-.2153.05381-.0538c.03588.0179.05381.0359.08969.0179.01794-.0179.05381-.0358.08969-.0717l.3049-.3229-.41253-.4125-.32287.3228c-.03587.0359-.05381.0718-.05381.1077-.00867.0099-.01345.0226-.01345.0358s.00478.026.01345.0359l-.03587.0538-.21525-.1973.05381-.0538c.01794.0179.05381.0179.07175.0179.03587-.0179.05381-.0358.08969-.0717l.66367-.6996c.03588-.0358.07175-.0538.07175-.0897.01794-.0358.01794-.0538-.01794-.0896l.05382-.0359.21528.1973zm.843.7713c-.0099-.0087-.0227-.0134-.0359-.0134s-.0259.0047-.0358.0134c-.0359.0179-.0718.0538-.0897.0718l-.6458.7174c-.0179.0359-.0538.0718-.0538.0897-.0179.0359 0 .0718.018.0897l-.0539.0538-.21521-.1973.03588-.0538c.03587.0179.07175.0179.08968.0179.03585-.0179.05385-.0538.08965-.0717l.6458-.7175.0538-.1076c.0179-.0359 0-.0538-.0179-.0718l.0538-.0538.2152.1973zm.3946.7354-.0359-.0358c.018-.0539.0359-.1077.0359-.1435.018-.0359.018-.0718.018-.0897 0-.0538 0-.0897-.018-.1256-.0179-.0179-.0179-.0359-.0359-.0359-.0538-.0358-.0896-.0538-.1435-.0358-.0538.0179-.1076.0358-.1435.0896-.0358.0539-.0717.0897-.0717.1435 0 .0539.0179.0897.0359.1256 0 .0179.0179.0359.0179.0538 0 .018.0179.018.0179.0359.018.0179.018.0359.0359.0538 0 .0179.018.0538.018.0717.0179.0539.0179.1256.0179.1974-.0248.0767-.0611.1493-.1076.2152 0 0-.018 0-.018.0179-.0717.0718-.1614.1256-.2511.1615s-.1794.0179-.2511-.0359c-.0179-.0179-.0179-.0359-.0538-.0538-.018-.0179-.0359-.0538-.0538-.0897v-.0179l-.018-.018c0-.0179 0-.0179-.0179-.0179v-.0179h-.0179v-.018h-.0359s-.018 0-.0359.018l-.0359-.0359.287-.3408.0359.0358c-.0538.0897-.0717.1974-.0717.287 0 .0897.0179.1615.0717.1974v.0179h.0179c.0359.0359.0897.0359.1435.0179.0718-.0179.1256-.0538.1615-.1076h.0179c.0359-.0538.0718-.1256.0718-.1794s0-.0897-.018-.1435c-.0179-.0179-.0179-.0358-.0179-.0538l-.0359-.0359c0-.0179-.0179-.0358-.0179-.0538-.018-.0179-.018-.0358-.018-.0538-.0179-.0538-.0358-.1076-.0179-.1793 0-.0718.0359-.1435.1076-.2153.0538-.0717.1256-.1256.2153-.1435.0897-.0359.1614-.0179.2332.0538.0179 0 .0179 0 .0179.018.0179 0 .0179 0 .0179.0179.018 0 .0359.0179.0359.0538.0179.0179.0179.0359.0179.0718v.0179h.018v.0359h.0538l.0359.0179zm1.0942.4485c-.0359-.018-.0538-.018-.0897 0-.0282.0262-.0524.0564-.0717.0896l-.2512.3409.4843.3408.2332-.3588c.0359-.0359.0538-.0717.0538-.0897.018-.0358 0-.0538-.0179-.0897l.0359-.0538.2511.1794-.0538.0538c-.018-.0179-.0359-.0179-.0538-.0179-.0164.0141-.0345.0262-.0538.0359l-.0359.0358c0 .018-.018.018-.018.018l-.556.7892c-.0179.0359-.0359.0717-.0359.1076-.0179.0359 0 .0538.018.0897l-.0359.0538-.2511-.1793.0538-.0539c.0099.0087.0227.0135.0358.0135.0132 0 .026-.0048.0359-.0135.0359-.0179.0538-.0538.0897-.0896l.2511-.3588-.4663-.3408-.2691.3587c-.0179.0539-.0359.0897-.0538.1077 0 .0358 0 .0717.0359.0897l-.0538.0538-.2332-.1794.0358-.0538c.0359.0179.0539.0179.0897 0 .018-.018.0538-.0359.0718-.0718l.556-.7892c.0359-.0359.0538-.0718.0538-.1076 0-.0359 0-.0538-.0358-.0718l.0538-.0717.2332.1793zm1.2197.7354c.018 0 .018 0 .0359.0179 0 0 .0179 0 .0359.018h.0179c.0179 0 .0179.0179.0179.0179h.0359c0 .0179.018.0179.018.0179l-.1435.2332-.0359-.0179c.0359-.0718.0359-.1256.0179-.1615-.0359-.0538-.0717-.0896-.1255-.1076l-.2153-.1435-.3049.4843.1435.1077h.0179l.018.0179h.0538c.0179 0 .0538-.0179.0717-.0538l.0538.0179-.1793.2691-.0359-.0359c.0179-.0538.0359-.0897.0179-.1076 0-.018-.0179-.018-.0538-.0538l-.1614-.0897-.305.5202.2512.1614c.0538.0359.1076.0538.1793.0538.0538 0 .1077-.0359.1615-.1076l.0538.0179-.1794.2511-.6995-.4305.0358-.0538c.0359.018.0538.018.0897 0 .0282-.0262.0524-.0564.0718-.0896l.5022-.8252c.0359-.0358.0538-.0717.0538-.1076 0-.0179 0-.0538-.0359-.0717l.0359-.0538zm.4126 1.3273-.3946-.2152.5201-.4843.018.0179zm.3228-.9327-.0179-.0179c0 .0179 0 .0179-.0179.0179h-.0359c0 .0179-.0179.0179-.0359.0179h-.0359l-.0358.0539c0 .0179 0 .0179.0179.0179v.0359c-.0179 0-.0179 0-.0179.0179 0 0-.018 0-.0359.0179l-.7534.6996c0 .0179-.0179.0179-.0358.0359 0 0-.018 0-.0359.0179 0 .0179-.0359.0179-.0538.0359-.018 0-.0359 0-.0538-.018l-.0359.0718.1973.1076.0359-.0538c-.018-.0179-.018-.0359-.018-.0538v-.0359s0-.0179.018-.0179v-.018c.0179 0 .0179-.0179.0358-.0358l.1435-.1256.4305.2511-.0358.1794v.0538s-.018 0-.018.0179c0 .018-.0179.018-.0179.0359-.0179 0-.0359.018-.0538 0l-.0359.0718.2511.1255.018-.0538c-.018-.0179-.018-.0359-.018-.0717-.0179-.0359 0-.0718 0-.1077zm.6996.3946-.0179.0538h-.0718c-.0179.018-.0359.018-.0359.0538v.018c-.0179 0-.0179.0179-.0179.0179v.0538l-.1256.9866.6817-.6996c.0179 0 .0179 0 .0179-.0179h.0179v-.0179c.018 0 .018 0 .018-.018h.0179v-.0179c.0125-.0218.0187-.0467.0179-.0718l-.0358-.0358-.018-.018.0359-.0538.2153.1076-.018.0538c-.0359 0-.0717 0-.0897.018-.0358.0179-.0538.0359-.0897.0717 0 0 0 .018-.0179.018l-.8969.8968-.0358-.0179.1793-1.3094v-.018-.0358-.0538c-.0179-.018-.0179-.0359-.0358-.0359l.0358-.0718zm1.2915.592h.0359c.0179.0179.0179.0179.0358.0179h.018l.0179.0179h.0359c.0179 0 .0179 0 .0359.018l-.1077.2511-.0538-.018c.018-.0896.018-.1434-.0179-.1614-.0226-.0429-.0613-.0752-.1076-.0897l-.2512-.1076-.2331.5381.1793.0718h.018c.0179.0179.0358.0179.0717 0 .0179 0 .0359-.018.0538-.0718l.0538.0359-.1255.2691-.0538-.018c.0179-.0538.0179-.0897 0-.1076 0-.0179-.018-.0179-.0539-.0359l-.1614-.0717-.2511.556.287.1076c.0538.0359.1255.0539.1794.0359.0717 0 .1255-.0359.1614-.1255l.0359.0179-.1256.2691-.7534-.305.018-.0717c.0359 0 .0717 0 .0897-.018.0179-.0179.0358-.0538.0538-.1076l.3767-.8789c.0179-.0359.0358-.0897.0358-.1076 0-.0359-.0179-.0538-.0538-.0718l.0359-.0717zm-.1256 1.417h.018c.0179 0 .0358 0 .0717-.0179l.0538-.1077.3229-.8968c.0179-.0538.0179-.0897.0179-.1256s-.0179-.0538-.0359-.0717l.018-.0718.1973.0718.1973 1.2376h.0179l.287-.8071v-.018c.018-.0179.018-.0179.018-.0359v-.0717c0-.0179-.018-.0359-.0359-.0538l.0179-.0718.2153.0897-.0359.0538c-.0359 0-.0538.018-.0717.0359-.018.0179-.0359.0538-.0539.0897l-.4125 1.13-.0359-.0179-.2332-1.3991-.3408.9686s-.0179 0-.0179.0179v.1077c0 .0179.0179.0358.0359.0358l-.018.0718-.2152-.0897zm1.0583.6995v-.0538c.0359-.0179.0718-.0538.1076-.0717.018-.0359.018-.0538.0359-.0718h-.0179l-.0538-.0538c0-.0179 0-.0538.0179-.0897v-.0179c.0179-.0179.0179-.0359.0359-.0359.0179-.0179.0358-.0179.0717-.0179l.018.0179c.0179 0 .0179.018.0358.0359 0 .0359 0 .0717-.0179.1076-.0179.0538-.0359.1076-.0897.1435-.0359.0538-.0717.0718-.1076.1076h-.0179zm1.2736-.3766-.4305-.1256.3946-.5919v.0179zm.0896-.9866-.0179-.0179-.0179.0179c-.018 0-.018.018-.0359.018l-.0179.0179h-.0359c0 .0179-.018.0179-.018.0179l-.0179.0538c0 .018.0179.018.0179.018v.0358c0 .018-.0179.018-.0179.0359l-.574.8789s-.0179 0-.0179.018l-.0359.0359c-.0179.0179-.0359.0358-.0538.0358-.0179.018-.0179.018-.0359.018l-.0179.0717.2152.0538.018-.0717c-.0093-.0007-.0181-.0046-.0247-.0112s-.0106-.0154-.0112-.0247c0 0-.0179-.0179-.0179-.0359h.0179v-.0179-.0179c0-.018.0179-.018.0359-.0359l.0897-.1615.4843.1256.0179.1973v.0538c-.0179.0359-.0179.0538-.0359.0538 0 .018-.0179.018-.0359.018l-.0179.0717.2691.0718.0179-.0718c-.0179 0-.0359-.0179-.0538-.0538 0-.0359-.0179-.0717-.0179-.1255zm.8072.287c-.027.0045-.052.017-.0717.0359-.018.0179-.0359.0538-.0359.1076l-.2332 1.0942.3049.0538c.0249.0081.0516.009.0769.0026.0254-.0063.0485-.0197.0666-.0385.0539-.0359.0897-.0897.1077-.1614h.0538l-.0718.3408-.7713-.1794.018-.0538c.0358 0 .0538-.0179.0717-.0359l.0538-.1076.1973-.9327c.018-.0538.018-.0897 0-.1256 0-.0359-.0179-.0538-.0538-.0538l.018-.0718.287.0539zm.8789.1794c-.0358 0-.0538 0-.0717.0359-.0179.0179-.0359.0538-.0359.1076l-.1973 1.0941.3229.0539c.0538.0179.1076 0 .1435-.0539.0359-.0358.0717-.0896.1076-.1614h.0359l-.0538.3408-.7713-.1435.0179-.0538c.027-.0045.052-.017.0717-.0359.018-.0358.0359-.0717.0359-.1255l.1615-.9328v-.1255c0-.018-.018-.0538-.0539-.0538v-.0718l.305.0538zm.6458.4484-.0359-.0179.0179-.4126.1256.018zm.843.0538h-.0538c-.0179-.0717-.0179-.1076-.0359-.1435l-.0538-.1076c-.0179-.0359-.0358-.0717-.0717-.0717-.0359-.018-.0538-.018-.0538-.018-.0718-.0179-.1077 0-.1435.0538-.0359.0359-.0538.0897-.0718.1435 0 .0718 0 .1256.0359.1615.0203.0381.0515.0694.0897.0896l.0359.0359c.0179 0 .0358.018.0358.018.018.0179.0359.0179.0718.0358.0179.018.0359.018.0538.0359.0359.0359.0897.0897.1076.1614.0359.0539.0538.1435.0359.2332v.0359c-.0179.1076-.0538.1973-.1256.2691-.0256.0328-.0582.0594-.0955.078-.0372.0187-.0781.0288-.1197.0296-.018-.018-.0538-.018-.0718-.018l-.1076-.0538h-.0179l-.018-.0179h-.0179c-.0179 0-.0179-.0179-.0179-.0179h-.018c-.0179 0-.0179.0179-.0358.0179 0 0-.018.0179-.018.0359h-.0538l.0538-.4485h.0538c0 .1077.0359.2153.0897.287.0538.0718.1076.1256.1794.1256h.0179c.0538.0179.0897-.0179.1435-.0538.0359-.0538.0538-.1076.0718-.1794v-.0179c0-.0718 0-.1256-.0359-.1794-.0145-.0463-.0467-.085-.0897-.1076-.0179-.018-.0359-.018-.0538-.0359s-.0179-.0179-.0359-.0179c-.0179-.018-.0359-.018-.0538-.0359-.0179 0-.0359-.0179-.0538-.0359-.0443-.0409-.0808-.0895-.1076-.1435-.0359-.0538-.0359-.1255-.0359-.2332.0179-.0896.0538-.1793.1076-.2511.0538-.0538.1435-.0897.2332-.0717h.0359c.0359 0 .0538.0179.0717.0358.018 0 .0359.018.0538.0539h.018s0 .0179.0179.0179h.018c.0179 0 .0179 0 .0179-.0179h.0538zm1.0583.3767.018-.5919h.1973c.0179 0 .0358 0 .0538.0179.0538 0 .0897.0359.1076.0718.0359.0358.0538.1076.0538.2152 0 .0897-.0179.1435-.0538.1973-.0314.03-.0679.0543-.1076.0718-.018.0179-.0359.0179-.0718.0179zm-.1973-.6816v.0717c.018 0 .0359 0 .0538.018 0 0 .018.0179.018.0359v.0179s0 .0179.0179.0179v.0718l-.0359.9506c0 .0539 0 .0897-.0179.1077-.0179.0358-.0359.0538-.0718.0538v.0717l.287.018v-.0718c-.0179-.0179-.0538-.0359-.0538-.0538-.0179-.0359-.0179-.0717-.0179-.1076l.0179-.4484.2153.0179.269.6637.1794.0179v-.0717c-.0179 0-.0359-.018-.0538-.0359-.0179-.018-.0359-.0359-.0359-.0718-.0179 0-.0179-.0179-.0179-.0179v-.0179l-.1973-.5023h.0358l.1256-.1255c.0359-.0539.0538-.1256.0538-.2332 0-.1435-.0359-.2332-.1076-.287-.0718-.0538-.1614-.0718-.2691-.0897zm1.2915.0897c-.0359 0-.0538.0179-.0718.0538-.0179.0359-.0179.0717-.0179.1076v.9507c0 .0538.0179.0897.0359.1255 0 .018.0179.0359.0538.0359v.0718h-.287v-.0538c.027-.0135.0513-.0317.0717-.0539 0-.0358.018-.0717.018-.1255l-.018-.9507c0-.0538.0001-.0897-.0179-.1076-.0179-.0359-.0359-.0538-.0717-.0538v-.0718h.3049zm.9865.2332-.0538.0179c-.0179-.0897-.0538-.1435-.0897-.1794-.0358-.0358-.0717-.0717-.1076-.0717-.0179-.018-.0538-.018-.0717-.0359h-.0538c-.018 0-.0359 0-.0538.0179h-.0359c-.0718.0359-.1256.1077-.1794.1973-.0538.0897-.0717.2332-.0538.4305v.1256c.0179.0538.0179.0897.0359.1435.0179.1076.0717.1973.1255.2691.0538.0896.1435.1255.2691.1255.0717-.0179.1255-.0359.1794-.0897.0538-.0538.0717-.1255.0717-.2152-.0179-.0538-.0179-.0897-.0359-.1076 0-.0359-.0179-.0359-.0358-.0538h-.018-.0179v-.0718l.2152-.0179.018.5022c-.0538.0359-.1077.0538-.1615.0718-.0358.0179-.0717.0358-.1255.0358-.018 0-.018.018-.0359.018h-.0538c-.0897 0-.1435 0-.1973-.018-.0538-.0358-.1076-.0538-.1435-.0717-.018-.018-.0359-.0359-.0359-.0538-.0093-.0007-.0181-.0047-.0247-.0113-.0065-.0065-.0105-.0153-.0112-.0246-.0538-.0538-.0897-.1435-.1255-.2332-.018-.1076-.0359-.2152-.0359-.3229v-.1793c.0179-.0718.0179-.1077.0359-.1615.0179-.0358.0179-.0538.0358-.0717 0-.0359.018-.0359.018-.0538.0359-.0718.0897-.1435.1614-.1794.0538-.0359.1256-.0717.1973-.0717h.1256c.0359.0179.0538.0179.0717.0358h.018l.0179.018h.0179c.018 0 .018 0 .0359.0179h.018v-.0179h.0179l.0179-.018h.0359zm.4664-.3229c-.0359.0179-.0538.0359-.0538.0717-.0179.018-.0179.0718-.0179.1077l.0538.4305.574-.0718-.0359-.4125c-.0179-.0539-.0179-.0897-.0359-.1077-.0179-.0358-.0359-.0538-.0717-.0538v-.0717l.287-.018.0179.0718c-.0359 0-.0538.0179-.0538.0359-.0179.0179-.0179.0358-.0179.0538-.018.0179-.018.0358-.018.0358.0103.0093.0166.0221.018.0359l.0896.9507c0 .0538.018.0897.0359.1255 0 .018.0359.0359.0718.0359v.0718l-.287.0179-.018-.0538c.0321-.0141.0577-.0397.0718-.0718v-.1076l-.0359-.4484-.5919.0538.0538.4484c0 .0538 0 .0897.0179.1256.018.0179.0359.0359.0718.0359l.0179.0717-.3049.018v-.0539c.0359-.0179.0538-.0358.0538-.0717.0179-.0179.0179-.0538.0179-.1076l-.1076-.9507c0-.0538 0-.0897-.0179-.1256-.018-.0179-.0359-.0358-.0718-.0358l-.0179-.0718.3049-.0179zm.7892-.1614.3409-.0359.287-.0359.3049-.0717.0359.269-.0539.018v-.0539c-.0179-.0358-.0358-.0538-.0717-.0896-.0179-.018-.0538-.018-.1076-.018l-.1973.0359.1793 1.0942c0 .0538.018.0897.018.1076.0179.0359.0538.0359.0897.0359v.0717l-.287.0538-.018-.0717c.027-.0134.0513-.0317.0718-.0538v-.1256l-.1794-1.0942-.1973.0359c-.0538 0-.0897.0179-.1076.0718-.018.0358-.018.0717-.018.1255h-.0538zm2.027.0896h-.018l-.1076-.1973v-.0179h-.0179v-.0359c-.018 0-.018-.0179-.018-.0179 0-.0359 0-.0538.018-.0718.0179 0 .0358-.0179.0538-.0179l.0358-.0179h.018s.0179 0 .0179.0179c.018 0 .018.0179.0359.0359v.0717zm.556-.5919-.2332.0718.018.0538c.0179 0 .0358 0 .0538.0179.0179.018.0179.0359.0358.0538v.1256l-.0538.9327-.3228-.556.0179-.3229v-.0179-.018c0-.0538.0179-.0897.0359-.1076 0-.0359.0179-.0538.0359-.0538l-.018-.0718-.5381.1256.0179.0717c.018 0 .0538 0 .0718.018.0221.0204.0404.0447.0538.0717l.2511.4485-.0359.5022-.4843-.8251c0-.0359-.0179-.0538-.0179-.0538-.0179-.018-.0179-.0359-.0179-.0359v-.0538c.0179-.0179.0179-.0359.0358-.0359 0 0 .018 0 .018-.0179l-.018-.0538-.3049.0717v.0718c.0359-.018.0718 0 .0897.0179s.0538.0359.0538.0718h.0179v.0179l.6278 1.1121.0539-.0179.0358-.6637.3408.5919.0359-.0179.0897-1.2556c0-.0718.0179-.1435.0359-.1615.0179-.0179.0179-.0358.0358-.0358zm.3588-.0359c-.0359.018-.0539.0359-.0539.0718s0 .0717.018.1076l.269.9327c.0007.0333.0135.0652.0359.0897.0179.0359.0538.0359.0897.0359l.0179.0718-.287.0717-.0179-.0538c.0359-.0179.0538-.0538.0538-.0718 0-.0358 0-.0717-.0179-.1255l-.2691-.9148c0-.0538-.0179-.0718-.0538-.1076-.0179-.018-.0359-.0359-.0717-.018l-.018-.0717.287-.0897zm.0717-.1076.3408-.0897.2691-.0897.287-.1076.0896.2511-.0538.018s0-.018-.0179-.018v-.0179c-.0141-.032-.0397-.0576-.0717-.0717-.0359-.018-.0718-.018-.1077-.018l-.1973.0718.3408 1.0583c.018.0538.0359.0897.0538.1076.018.0179.0538.0359.0718.0179l.0359.0718-.287.0897-.018-.0718c.018 0 .0359-.0359.0538-.0538 0-.0359-.0179-.0718-.0358-.1256l-.3408-1.0583-.1974.0718c-.0538.0179-.0717.0359-.0896.0897v.1255l-.0538.018zm1.2735-.3408c-.0179.0179-.0358.0359-.0358.0718 0 .0358 0 .0717.0179.1076l.1614.3946.5382-.2152-.1615-.3947c-.0179-.0358-.0359-.0717-.0538-.0897-.0179-.0179-.0359-.0358-.0717-.0179l-.0359-.0717.287-.1077.0179.0718c-.0093.0006-.018.0046-.0246.0112s-.0106.0154-.0113.0247v.1076c.018.0179.018.0179.018.0359l.3408.8968c.0179.0359.0359.0718.0538.0897.0359.0359.0538.0359.0897.0179l.0359.0718-.287.1076-.018-.0717c.018-.018.0359-.0359.0359-.0718 0-.0179 0-.0538-.0179-.1076l-.1615-.4126-.556.1973.1614.4305c.018.0539.0359.0718.0718.1077.0179.0179.0358.0179.0717.0179l.0359.0538-.287.1076-.0179-.0538c.0179-.0179.0358-.0358.0358-.0717s0-.0718-.0179-.1076l-.3408-.8969c-.018-.0538-.0538-.0897-.0718-.1076-.0179-.018-.0358-.0359-.0717-.018l-.0359-.0717.287-.1076zm1.1839-.574.3229-.1435.2511-.1255.2691-.1435.1255.2511-.0538.0179v-.0179l-.0179-.018c-.018-.0358-.0538-.0538-.0897-.0717s-.0718-.0179-.1076.0179l-.1794.0718.4843 1.0045c.0179.0538.0359.0897.0717.1076.018.0179.0359.0179.0718.0179l.0359.0538-.2691.1256-.0359-.0538c.0359-.018.0538-.0538.0538-.0718 0-.0358-.0179-.0717-.0358-.1255l-.4843-.9866-.1974.0897c-.0538.018-.0717.0538-.0717.0897 0 .0538 0 .0897.0179.1256l-.0538.0358zm1.2197-.5202c-.0358.018-.0358.0359-.0358.0718s.0179.0717.0358.1076l.2153.3767.5022-.287-.1973-.3767c-.0359-.0359-.0538-.0717-.0717-.0897-.0359-.0179-.0538-.0179-.0897 0l-.0359-.0717.2691-.1435.0179.0717c-.0179.018-.0179.0359-.0359.0538 0 .018.018.0359.018.0718 0 0 0 .0179.0179.0179 0 .018 0 .0359.0179.0359l.4664.8431c.0179.0358.0359.0717.0718.0896.0099.0087.0226.0135.0358.0135s.026-.0048.0359-.0135l.0359.0718-.2511.1435-.0359-.0718c.0179-.0179.0359-.0358.0359-.0717-.018-.0359-.018-.0718-.0539-.1076l-.2152-.3947-.5022.287.2152.3947c.0179.0358.0538.0717.0717.0896.018.018.0539.018.0897.018l.018.0538-.2512.1435-.0358-.0538c.0359-.018.0358-.0538.0358-.0897 0-.0179-.0179-.0538-.0358-.1076l-.4664-.8251c-.0179-.0539-.0538-.0718-.0717-.1077-.018-.0179-.0539-.0179-.0897 0l-.0359-.0538.2691-.1435zm1.1839-.7892s.0179 0 .0359-.0179c0 0 .0179-.018.0358-.018 0-.0179.018-.0179.018-.0179s0-.0179.0179-.0179c0-.018.018-.018.018-.018l.0179-.0179.1435.2332-.0359.0179c-.0538-.0538-.0897-.0718-.1435-.0718-.0359 0-.0897.018-.1435.0539l-.2152.1435.3049.4843.1435-.0897c.0179 0 .0179-.018.0179-.018h.018c.0179-.0179.0179-.0358.0358-.0538 0-.0179 0-.0538-.0179-.0897l.0359-.0179.1614.2511-.0359.018c-.0538-.0359-.0717-.0538-.0896-.0538-.027.0044-.052.0169-.0718.0358l-.1614.0897.3228.5023.2512-.1435c.0538-.0359.1076-.0897.1435-.1435.0358-.0539.0179-.1256-.018-.1973l.0359-.0359.1435.269-.6816.4485-.0538-.0718c.0358-.0179.0358-.0359.0358-.0717 0-.0359-.0179-.0718-.0358-.1077l-.5202-.8071c-.0179-.0538-.0538-.0718-.0718-.0897-.0358-.018-.0538-.018-.0896-.018l-.0359-.0538zm1.5426-.5381-.1794-.1435h-.0179c-.018-.0179-.018-.018-.0359-.018 0-.0179-.0179-.0179-.0179-.0358-.018-.018-.018-.0359-.018-.0538l.0538-.0539.018-.0179h.0179c.018-.0179.018-.0179.0359-.0179 0 .0179.0179.0179.0359.0358 0 0 0 .018.0179.018v.0359zm.287-.7713-.1973.1614.0358.0538v-.0179h.0718c.0179 0 .0359.0179.0538.0359v.0179c.0179.0179.0179.0179.0179.0359v.0179h.018v.0359l.3408.8789h-.0179l-.5023-.3767-.1255-.3049v-.0179-.018c-.018-.0358-.0359-.0717-.0359-.1076s.0179-.0538.0359-.0717l-.0539-.0539-.4484.3408.0538.0539c.018-.018.0359-.018.0718-.018.0179.018.0538.0359.0717.0538l.4126.305.1793.4663-.7713-.556c-.0179-.018-.0358-.0359-.0538-.0359 0-.0179-.0179-.0179-.0179-.0359-.0179-.0179-.0179-.0358-.0179-.0538v-.0359h.0179v-.0179l-.0359-.0538-.2511.1973.0359.0538c.0179-.0179.0538-.0179.0897-.0179.0179.0179.0538.0359.0717.0538h.018l1.0403.7713.0359-.0359-.2511-.6278h.0179l.5381.3946.0359-.0179-.4305-1.1839c-.0359-.0717-.0538-.1255-.0359-.1614 0-.0179 0-.0359.018-.0359zm.4484-.3049v-.018h.018c.0717-.0538.1614-.0538.2869-.0359.1256.0359.2512.1435.3947.305.1435.1614.2152.3049.2332.4305.0179.1255 0 .2152-.0718.269v.018l-.0179.0179h-.018c-.0717.0538-.1614.0717-.287.0359-.1255-.0359-.2511-.1256-.3946-.287-.1435-.1615-.2152-.305-.2332-.4305-.0179-.1256.018-.2332.0718-.287v-.0179zm-.0538-.0718c-.0541.0531-.0951.1179-.12.1895-.0249.0715-.033.1479-.0235.2231.0359.1793.1076.3408.2332.4843s.2691.2332.4484.287c.1615.0538.305.0179.4126-.0718.1255-.1076.1614-.2332.1435-.4125-.018-.1794-.1076-.3409-.2332-.4843-.1146-.1333-.2635-.2325-.4305-.287-.1794-.0539-.3229-.018-.4305.0717zm1.1121-.0538-.4125-.4305.1076-.1076c0-.018.0179-.018.0359-.0359.0179-.0179.0358-.0179.0538-.0359.0358-.0179.0717-.0358.1255-.0179.0538 0 .1077.0359.1794.1076.0718.0718.0897.1256.1076.1794 0 .0538 0 .0897-.0179.1255 0 .0359-.018.0539-.0359.0718l-.0359.0359zm-.6278-.3408.0538.0538c.018-.0179.0359-.0179.0359-.0179h.0538s.0179 0 .0179.0179h.018c0 .0179.0179.0179.0179.0179 0 .018.018.018.018.018s0 .0179.0179.0179l.6637.6816c.0179.0359.0538.0718.0538.0897.0179.0359.0179.0538 0 .0897l.0359.0538.2152-.2152-.0359-.0359c-.0358.0179-.0717.0179-.0897 0-.0358 0-.0717-.0359-.0896-.0718l-.305-.3049.1615-.1614.6636.287.1435-.1256-.0538-.0538c-.0179.0179-.0359.0179-.0717.0179-.018 0-.0538 0-.0718-.0179h-.0179c-.018 0-.0179-.0179-.0359-.0179l-.4843-.1974.0179-.0179v-.0179c.018-.0523.018-.1091 0-.1615-.0208-.0821-.0643-.1567-.1255-.2152-.0897-.1076-.1794-.1435-.2691-.1256-.1025.0186-.1965.0688-.269.1435zm.9686-.861c-.0179.0179-.0359.0538-.0179.0717.0179.0359.0359.0718.0717.1077l.8072.7533.2153-.2332c.0359-.039.0552-.0904.0538-.1434-.018-.0718-.0538-.1256-.0897-.1794l.0359-.0359.2331.2332-.5201.574-.0539-.0538c.018-.018.018-.0538 0-.0897 0-.018-.0358-.0538-.0717-.0897l-.6996-.6457c-.0358-.0359-.0538-.0539-.0896-.0718-.0359-.0179-.0538 0-.0897.0179l-.0359-.0538.1973-.2152zm1.5067.2332-.9686-.8251.1256-.1435c.0179 0 .0359-.018.0538-.0538.0359-.018.0897-.0538.1435-.0718.0538-.0179.1435 0 .2332.0179.1076.018.2152.0897.3408.1974.1435.1076.2152.2152.2511.3049.0359.1076.0538.1794.0359.2511-.0179.0359-.0179.0718-.0359.1076-.0134.027-.0316.0513-.0538.0718zm-1.1659-.7175.0538.0538c.0359-.0359.0539-.0359.0897-.0359.0359.018.0538.0359.1076.0718l.7175.6098.0897.0897c0 .0359 0 .0718-.0179.0897l.0538.0538.2691-.3408c.0179-.0179.0538-.0359.0717-.0897.0179-.0358.0359-.0897.0538-.1435.018-.0896.018-.1793-.0179-.287-.0359-.1076-.1256-.2152-.2691-.3408-.1794-.1435-.3228-.2152-.4484-.2332-.1256 0-.2511.018-.3229.0718-.0359.0179-.0538.0359-.0897.0538l-.0538.0538zm1.7579-.1794c.0179-.0179.0359-.0179.0538-.0179s.0359.0179.0538.0359c.0359.0179.0538.0358.0538.0717v.0538c-.0179.018-.0359.018-.0538.018h-.0538l-.018-.018h-.0179v-.0179c-.0179 0-.0179-.018-.0179-.018-.018-.0179-.018-.0358-.018-.0538-.0179-.0179 0-.0179 0-.0358z"/></g></svg>